<svg width="45" height="45" viewBox="0 0 45 45" fill="none" xmlns="http://www.w3.org/2000/svg">
<path fill-rule="evenodd" clip-rule="evenodd" d="M6.36944 5.34754C6.09485 5.07295 5.64966 5.07295 5.37507 5.34754C5.10048 5.62213 5.10048 6.06732 5.37507 6.34191L38.658 39.6249C38.9326 39.8995 39.3778 39.8995 39.6524 39.6249C39.927 39.3503 39.927 38.9051 39.6524 38.6305L6.36944 5.34754ZM11.6241 15.9655C11.6959 15.909 11.7684 15.8527 11.8416 15.7967L12.8453 16.8005C12.7264 16.8897 12.6093 16.9797 12.4941 17.0704C11.2039 18.0862 10.1711 19.1773 9.46731 20.1649C8.74154 21.1834 8.43748 21.9908 8.43748 22.4561C8.43748 22.9599 8.74718 23.7921 9.46993 24.8203C10.1732 25.8208 11.2053 26.9177 12.4948 27.9357C15.0786 29.9754 18.621 31.6406 22.5 31.6406C24.0532 31.6406 25.5528 31.3701 26.9586 30.9138L28.0634 32.0186C26.3433 32.6549 24.4679 33.0469 22.5 33.0469C18.2242 33.0469 14.3837 31.2185 11.6234 29.0394C10.2409 27.948 9.11054 26.7543 8.31948 25.629C7.54787 24.5313 7.03123 23.4024 7.03123 22.4561C7.03123 21.537 7.55351 20.4273 8.3221 19.3488C9.11267 18.2394 10.2422 17.0536 11.6241 15.9655ZM14.9414 22.5C14.9414 21.4382 15.1603 20.4275 15.5555 19.5107L16.6462 20.6014C16.4524 21.1993 16.3476 21.8374 16.3476 22.5C16.3476 25.8978 19.1021 28.6523 22.5 28.6523C23.1625 28.6523 23.8006 28.5476 24.3986 28.3538L25.4893 29.4445C24.5724 29.8397 23.5618 30.0586 22.5 30.0586C18.3255 30.0586 14.9414 26.6745 14.9414 22.5ZM19.5419 15.5421L20.6351 16.6354C21.2233 16.4485 21.8499 16.3477 22.5 16.3477C25.8978 16.3477 28.6523 19.1022 28.6523 22.5C28.6523 23.1501 28.5515 23.7766 28.3646 24.3648L29.4578 25.4581C29.8446 24.5495 30.0586 23.5497 30.0586 22.5C30.0586 18.3255 26.6745 14.9414 22.5 14.9414C21.4502 14.9414 20.4505 15.1554 19.5419 15.5421ZM32.5038 27.9038C32.3928 27.9919 32.2801 28.0793 32.1656 28.1659L33.1688 29.169C33.2392 29.1147 33.3089 29.0601 33.3779 29.0054C34.7599 27.9087 35.8894 26.7129 36.6797 25.5929C37.449 24.5029 37.9687 23.3835 37.9687 22.4561C37.9687 21.5276 37.4481 20.4132 36.6782 19.3308C35.8873 18.2187 34.7573 17.0339 33.3751 15.9485C30.6156 13.7814 26.7757 11.9531 22.5 11.9531C20.5428 11.9531 18.677 12.3385 16.9645 12.9647L18.0714 14.0716C19.4685 13.6244 20.9577 13.3594 22.5 13.3594C26.3791 13.3594 29.922 15.0247 32.5066 17.0545C33.7964 18.0674 34.8288 19.1568 35.5323 20.1458C36.2568 21.1645 36.5625 21.9783 36.5625 22.4561C36.5625 22.9349 36.2559 23.7546 35.5308 24.7821C34.8268 25.7797 33.7938 26.8801 32.5038 27.9038Z" fill="black"/>
</svg>
