<svg width="45" height="45" viewBox="0 0 45 45" fill="none" xmlns="http://www.w3.org/2000/svg">
<path fill-rule="evenodd" clip-rule="evenodd" d="M8.4375 22.4561C8.4375 21.9908 8.74157 21.1834 9.46734 20.1649C10.1711 19.1773 11.204 18.0862 12.4941 17.0704C15.0795 15.0347 18.6221 13.3594 22.5 13.3594C26.3791 13.3594 29.922 15.0247 32.5066 17.0545C33.7965 18.0674 34.8289 19.1568 35.5323 20.1458C36.2568 21.1645 36.5625 21.9783 36.5625 22.4561C36.5625 22.9349 36.2559 23.7546 35.5308 24.7821C34.8268 25.7798 33.7939 26.8801 32.5038 27.9038C29.9185 29.9554 26.3766 31.6406 22.5 31.6406C18.621 31.6406 15.0786 29.9754 12.4948 27.9357C11.2053 26.9177 10.1733 25.8208 9.46996 24.8203C8.7472 23.7921 8.4375 22.9599 8.4375 22.4561ZM22.5 11.9531C18.2231 11.9531 14.3829 13.7934 11.6242 15.9655C10.2422 17.0536 9.11269 18.2394 8.32212 19.3488C7.55353 20.4274 7.03125 21.537 7.03125 22.4561C7.03125 23.4024 7.5479 24.5313 8.31951 25.629C9.11056 26.7543 10.2409 27.948 11.6235 29.0394C14.3838 31.2185 18.2242 33.0469 22.5 33.0469C26.7783 33.0469 30.6192 31.1945 33.3779 29.0054C34.7599 27.9087 35.8894 26.7129 36.6798 25.5929C37.449 24.5029 37.9688 23.3835 37.9688 22.4561C37.9688 21.5276 37.4481 20.4132 36.6783 19.3308C35.8873 18.2187 34.7573 17.0339 33.3751 15.9485C30.6157 13.7814 26.7757 11.9531 22.5 11.9531ZM16.3477 22.5C16.3477 19.1022 19.1022 16.3477 22.5 16.3477C25.8978 16.3477 28.6523 19.1022 28.6523 22.5C28.6523 25.8978 25.8978 28.6523 22.5 28.6523C19.1022 28.6523 16.3477 25.8978 16.3477 22.5ZM22.5 14.9414C18.3255 14.9414 14.9414 18.3255 14.9414 22.5C14.9414 26.6745 18.3255 30.0586 22.5 30.0586C26.6745 30.0586 30.0586 26.6745 30.0586 22.5C30.0586 18.3255 26.6745 14.9414 22.5 14.9414Z" fill="black"/>
</svg>
