<svg width="40" height="40" viewBox="0 0 40 40" fill="none" xmlns="http://www.w3.org/2000/svg">
<path fill-rule="evenodd" clip-rule="evenodd" d="M1.81818 15.0134C1.81818 7.72677 7.71988 1.8198 15 1.8198C22.2801 1.8198 28.1818 7.72677 28.1818 15.0134C28.1818 22.3 22.2801 28.207 15 28.207C7.71988 28.207 1.81818 22.3 1.81818 15.0134ZM15 0C6.71573 0 0 6.72172 0 15.0134C0 23.305 6.71573 30.0268 15 30.0268C18.8241 30.0268 22.3139 28.5945 24.9633 26.2367L38.4481 39.7335C38.8031 40.0888 39.3787 40.0888 39.7337 39.7335C40.0888 39.3782 40.0888 38.802 39.7337 38.4467L26.2468 24.9477C28.5826 22.3007 30 18.8227 30 15.0134C30 6.72172 23.2843 0 15 0Z" fill="white"/>
</svg>
