<svg width="45" height="45" viewBox="0 0 45 45" fill="none" xmlns="http://www.w3.org/2000/svg">
<path fill-rule="evenodd" clip-rule="evenodd" d="M6.36944 5.34754C6.09485 5.07295 5.64966 5.07295 5.37507 5.34754C5.10048 5.62213 5.10048 6.06732 5.37507 6.34191L38.658 39.6249C38.9326 39.8995 39.3778 39.8995 39.6524 39.6249C39.927 39.3503 39.927 38.9051 39.6524 38.6305L6.36944 5.34754ZM11.6015 17.9297C11.6015 17.1905 11.6751 16.4685 11.8154 15.7706L13.052 17.0072C13.0228 17.3108 13.0078 17.6185 13.0078 17.9297V21.1082C13.1237 21.0986 13.241 21.0937 13.3594 21.0937H17.1386L18.5448 22.5H13.3594C11.806 22.5 10.5469 23.7592 10.5469 25.3125V33.75C10.5469 35.3033 11.806 36.5625 13.3594 36.5625H31.6406C31.9329 36.5625 32.2149 36.5179 32.4799 36.4351L33.5551 37.5103C32.9806 37.8034 32.3299 37.9687 31.6406 37.9687H13.3594C11.0294 37.9687 9.1406 36.0799 9.1406 33.75V25.3125C9.1406 23.6099 10.1492 22.1428 11.6015 21.4763V17.9297ZM31.6406 21.0937H25.0935L26.4998 22.5H31.6406C33.1939 22.5 34.4531 23.7592 34.4531 25.3125V30.4533L35.8594 31.8596V25.3125C35.8594 23.6099 34.8507 22.1428 33.3984 21.4763V17.9297C33.3984 11.9106 28.519 7.03125 22.5 7.03125C19.3453 7.03125 16.5037 8.37158 14.5136 10.5138L15.5088 11.509C17.2437 9.62086 19.7336 8.4375 22.5 8.4375C27.7424 8.4375 31.9922 12.6873 31.9922 17.9297V21.1082C31.8762 21.0986 31.759 21.0937 31.6406 21.0937ZM20.3906 28.125C20.3906 27.0973 21.1256 26.2412 22.0986 26.0538L24.6094 28.5645V30.9375C24.6094 32.1025 23.6649 33.0469 22.5 33.0469C21.335 33.0469 20.3906 32.1025 20.3906 30.9375V28.125ZM23.2031 30.9375V28.125C23.2031 27.7367 22.8883 27.4219 22.5 27.4219C22.1116 27.4219 21.7968 27.7367 21.7968 28.125V30.9375C21.7968 31.3258 22.1116 31.6406 22.5 31.6406C22.8883 31.6406 23.2031 31.3258 23.2031 30.9375Z" fill="black"/>
</svg>
