<svg width="45" height="45" viewBox="0 0 45 45" fill="none" xmlns="http://www.w3.org/2000/svg">
<path fill-rule="evenodd" clip-rule="evenodd" d="M13.0078 17.9297C13.0078 12.6873 17.2576 8.4375 22.5 8.4375C27.7424 8.4375 31.9922 12.6873 31.9922 17.9297V21.1082C31.8763 21.0986 31.759 21.0938 31.6406 21.0938H13.3594C13.241 21.0938 13.1237 21.0986 13.0078 21.1082V17.9297ZM11.6016 21.4763V17.9297C11.6016 11.9106 16.481 7.03125 22.5 7.03125C28.519 7.03125 33.3984 11.9106 33.3984 17.9297V21.4763C34.8508 22.1428 35.8594 23.6099 35.8594 25.3125V33.75C35.8594 36.08 33.9706 37.9688 31.6406 37.9688H13.3594C11.0294 37.9688 9.14062 36.08 9.14062 33.75V25.3125C9.14062 23.6099 10.1492 22.1428 11.6016 21.4763ZM34.4531 25.3125C34.4531 23.7592 33.1939 22.5 31.6406 22.5H13.3594C11.8061 22.5 10.5469 23.7592 10.5469 25.3125V33.75C10.5469 35.3033 11.8061 36.5625 13.3594 36.5625H31.6406C33.1939 36.5625 34.4531 35.3033 34.4531 33.75V25.3125ZM23.2031 30.9375V28.125C23.2031 27.7367 22.8883 27.4219 22.5 27.4219C22.1117 27.4219 21.7969 27.7367 21.7969 28.125V30.9375C21.7969 31.3258 22.1117 31.6406 22.5 31.6406C22.8883 31.6406 23.2031 31.3258 23.2031 30.9375ZM24.6094 28.125C24.6094 26.96 23.665 26.0156 22.5 26.0156C21.335 26.0156 20.3906 26.96 20.3906 28.125V30.9375C20.3906 32.1025 21.335 33.0469 22.5 33.0469C23.665 33.0469 24.6094 32.1025 24.6094 30.9375V28.125Z" fill="black"/>
</svg>
