<svg width="31" height="9" viewBox="0 0 31 9" fill="none" xmlns="http://www.w3.org/2000/svg">
<path fill-rule="evenodd" clip-rule="evenodd" d="M1.4375 4.5C1.4375 5.66498 2.3819 6.60938 3.54688 6.60938C4.71185 6.60938 5.65625 5.66498 5.65625 4.5C5.65625 3.33503 4.71185 2.39062 3.54688 2.39062C2.3819 2.39062 1.4375 3.33503 1.4375 4.5ZM3.54688 0.984375C1.60525 0.984375 0.03125 2.55838 0.03125 4.5C0.03125 6.44163 1.60525 8.01563 3.54688 8.01563C5.4885 8.01563 7.0625 6.44163 7.0625 4.5C7.0625 2.55838 5.4885 0.984375 3.54688 0.984375ZM25.3438 4.5C25.3438 5.66498 26.2882 6.60938 27.4531 6.60938C28.6181 6.60938 29.5625 5.66498 29.5625 4.5C29.5625 3.33503 28.6181 2.39062 27.4531 2.39062C26.2882 2.39062 25.3438 3.33503 25.3438 4.5ZM27.4531 0.984375C25.5115 0.984375 23.9375 2.55838 23.9375 4.5C23.9375 6.44163 25.5115 8.01563 27.4531 8.01563C29.3948 8.01563 30.9688 6.44163 30.9688 4.5C30.9688 2.55838 29.3948 0.984375 27.4531 0.984375ZM15.5 6.60938C14.335 6.60938 13.3906 5.66498 13.3906 4.5C13.3906 3.33503 14.335 2.39062 15.5 2.39062C16.665 2.39062 17.6094 3.33503 17.6094 4.5C17.6094 5.66498 16.665 6.60938 15.5 6.60938ZM11.9844 4.5C11.9844 2.55838 13.5584 0.984375 15.5 0.984375C17.4416 0.984375 19.0156 2.55838 19.0156 4.5C19.0156 6.44163 17.4416 8.01563 15.5 8.01563C13.5584 8.01563 11.9844 6.44163 11.9844 4.5Z" fill="black"/>
</svg>
