<svg width="9" height="31" viewBox="0 0 9 31" fill="none" xmlns="http://www.w3.org/2000/svg">
<path fill-rule="evenodd" clip-rule="evenodd" d="M4.5 1.4375C3.33502 1.4375 2.39062 2.3819 2.39062 3.54688C2.39062 4.71185 3.33502 5.65625 4.5 5.65625C5.66497 5.65625 6.60937 4.71185 6.60937 3.54688C6.60938 2.3819 5.66497 1.4375 4.5 1.4375ZM8.01562 3.54688C8.01562 1.60525 6.44162 0.0312499 4.5 0.0312498C2.55837 0.0312498 0.984373 1.60525 0.984373 3.54688C0.984373 5.4885 2.55837 7.0625 4.5 7.0625C6.44162 7.0625 8.01562 5.4885 8.01562 3.54688ZM4.5 25.3437C3.33502 25.3437 2.39062 26.2882 2.39062 27.4531C2.39062 28.6181 3.33502 29.5625 4.5 29.5625C5.66497 29.5625 6.60937 28.6181 6.60937 27.4531C6.60937 26.2882 5.66497 25.3437 4.5 25.3437ZM8.01562 27.4531C8.01562 25.5115 6.44162 23.9375 4.5 23.9375C2.55837 23.9375 0.984372 25.5115 0.984372 27.4531C0.984372 29.3948 2.55837 30.9688 4.5 30.9688C6.44162 30.9688 8.01562 29.3948 8.01562 27.4531ZM2.39062 15.5C2.39062 14.335 3.33502 13.3906 4.5 13.3906C5.66497 13.3906 6.60937 14.335 6.60937 15.5C6.60937 16.665 5.66497 17.6094 4.5 17.6094C3.33502 17.6094 2.39062 16.665 2.39062 15.5ZM4.5 11.9844C6.44162 11.9844 8.01562 13.5584 8.01562 15.5C8.01562 17.4416 6.44162 19.0156 4.5 19.0156C2.55837 19.0156 0.984372 17.4416 0.984372 15.5C0.984372 13.5584 2.55837 11.9844 4.5 11.9844Z" fill="black"/>
</svg>
